<?xml version="1.0" encoding="UTF-8" standalone="no"?>
<svg
   xmlns:dc="http://purl.org/dc/elements/1.1/"
   xmlns:cc="http://creativecommons.org/ns#"
   xmlns:rdf="http://www.w3.org/1999/02/22-rdf-syntax-ns#"
   xmlns:svg="http://www.w3.org/2000/svg"
   xmlns="http://www.w3.org/2000/svg"
   xmlns:sodipodi="http://sodipodi.sourceforge.net/DTD/sodipodi-0.dtd"
   xmlns:inkscape="http://www.inkscape.org/namespaces/inkscape"
   sodipodi:docname="open book.svg"
   inkscape:version="1.0 (6e3e5246a0, 2020-05-07)"
   id="svg872"
   version="1.1"
   viewBox="0 0 1587.4999 1587.5001"
   height="6000"
   width="6000">
  <defs
     id="defs866" />
  <sodipodi:namedview
     inkscape:window-maximized="1"
     inkscape:window-y="27"
     inkscape:window-x="72"
     inkscape:window-height="704"
     inkscape:window-width="1294"
     inkscape:snap-global="false"
     units="px"
     showgrid="false"
     inkscape:document-rotation="0"
     inkscape:current-layer="layer1"
     inkscape:document-units="mm"
     inkscape:cy="2694.9866"
     inkscape:cx="1839.332"
     inkscape:zoom="0.057911189"
     inkscape:pageshadow="2"
     inkscape:pageopacity="0.0"
     borderopacity="1.0"
     bordercolor="#666666"
     pagecolor="#ffffff"
     id="base" />
  <metadata
     id="metadata869">
    <rdf:RDF>
      <cc:Work
         rdf:about="">
        <dc:format>image/svg+xml</dc:format>
        <dc:type
           rdf:resource="http://purl.org/dc/dcmitype/StillImage" />
        <dc:title></dc:title>
      </cc:Work>
    </rdf:RDF>
  </metadata>
  <g
     id="layer1"
     inkscape:groupmode="layer"
     inkscape:label="Layer 1">
    <g
       transform="matrix(1.5083081,0,0,1.5083081,-3.2579943,81.376292)"
       id="g1499">
      <g
         id="g1456">
        <rect
           ry="54.692871"
           y="203.06798"
           x="41.866123"
           height="589.92786"
           width="973.09161"
           id="rect1435"
           style="fill:#333333;stroke-width:4" />
        <path
           transform="scale(0.26458333)"
           d="M 1899.6348,767.50195 V 2997.1504 h 195.0254 V 767.50195 Z"
           style="fill:#000000;stroke-width:12.6003"
           id="rect1439" />
        <rect
           ry="54.692814"
           y="239.65413"
           x="91.375397"
           height="516.75555"
           width="874.07306"
           id="rect1437"
           style="fill:#999999;stroke-width:4" />
        <path
           sodipodi:nodetypes="ccccc"
           d="m 93.636222,202.79875 c 151.131978,-74.13958 293.164158,-55.93 431.479468,0 v 522.53728 c -146.63599,-51.74854 -291.78429,-76.09512 -431.479468,0 z"
           style="fill:#f2f2f2;stroke-width:4.23669"
           id="rect1446" />
        <path
           id="path1449"
           style="fill:#e6e6e6;stroke-width:4.27652"
           d="m 524.2605,200.61649 c 153.98683,-74.13958 298.70196,-55.93 439.63001,0 v 522.53728 c -149.4059,-51.74854 -297.29602,-76.09512 -439.63001,0 z"
           sodipodi:nodetypes="ccccc" />
      </g>
      <g
         id="g1471">
        <path
           sodipodi:nodetypes="ccccc"
           d="m 112.17306,237.1253 c 129.06587,-45.99877 258.13173,-36.58114 387.1976,0 v 39.63287 c -128.77451,-40.74541 -257.81102,-45.39717 -387.1976,0 z"
           style="fill:#e6e6e6;stroke-width:4"
           id="rect1458" />
        <path
           id="path1461"
           style="fill:#e6e6e6;stroke-width:4"
           d="m 108.25792,353.12792 c 129.06587,-45.99877 258.13173,-36.58114 387.1976,0 v 39.63287 c -128.77451,-40.74541 -257.81102,-45.39717 -387.1976,0 z"
           sodipodi:nodetypes="ccccc" />
        <path
           sodipodi:nodetypes="ccccc"
           d="m 109.94584,469.13053 c 129.06587,-45.99877 258.13173,-36.58114 387.1976,0 v 39.63287 c -128.77451,-40.74541 -257.81102,-45.39717 -387.1976,0 z"
           style="fill:#e6e6e6;stroke-width:4"
           id="path1463" />
        <path
           id="path1465"
           style="fill:#e6e6e6;stroke-width:4"
           d="m 110.06993,585.13318 c 129.06587,-45.99877 258.13173,-36.58114 387.1976,0 v 39.63287 c -128.77451,-40.74541 -257.81102,-45.39717 -387.1976,0 z"
           sodipodi:nodetypes="ccccc" />
      </g>
      <g
         id="g1481"
         transform="translate(444.50022)"
         style="fill:#cccccc">
        <path
           id="path1473"
           style="fill:#cccccc;stroke-width:4"
           d="m 112.17306,237.1253 c 129.06587,-45.99877 258.13173,-36.58114 387.1976,0 v 39.63287 c -128.77451,-40.74541 -257.81102,-45.39717 -387.1976,0 z"
           sodipodi:nodetypes="ccccc" />
        <path
           sodipodi:nodetypes="ccccc"
           d="m 108.25792,353.12792 c 129.06587,-45.99877 258.13173,-36.58114 387.1976,0 v 39.63287 c -128.77451,-40.74541 -257.81102,-45.39717 -387.1976,0 z"
           style="fill:#cccccc;stroke-width:4"
           id="path1475" />
        <path
           id="path1477"
           style="fill:#cccccc;stroke-width:4"
           d="m 109.94584,469.13053 c 129.06587,-45.99877 258.13173,-36.58114 387.1976,0 v 39.63287 c -128.77451,-40.74541 -257.81102,-45.39717 -387.1976,0 z"
           sodipodi:nodetypes="ccccc" />
        <path
           sodipodi:nodetypes="ccccc"
           d="m 110.06993,585.13318 c 129.06587,-45.99877 258.13173,-36.58114 387.1976,0 v 39.63287 c -128.77451,-40.74541 -257.81102,-45.39717 -387.1976,0 z"
           style="fill:#cccccc;stroke-width:4"
           id="path1479" />
      </g>
    </g>
  </g>
</svg>
